
        <svg xmlns="http://www.w3.org/2000/svg" xmlns:xlink="http://www.w3.org/1999/xlink" version="1.1" width="3162.1621621621625" height="1167.5925456966652" viewBox="0 0 3162.1621621621625 1167.5925456966652">
			
			<g transform="scale(8.108108108108109) translate(10, 10)">
				<defs id="SvgjsDefs2309"><linearGradient id="SvgjsLinearGradient2316"><stop id="SvgjsStop2317" stop-color="#905e26" offset="0"/><stop id="SvgjsStop2318" stop-color="#f5ec9b" offset="0.5"/><stop id="SvgjsStop2319" stop-color="#905e26" offset="1"/></linearGradient></defs><g id="SvgjsG2310" featureKey="T16ghp-0" transform="matrix(1.5116244069124247,0,0,1.5116244069124247,-25.581223228815986,-13.604619662211823)" fill="#fff"><path xmlns="http://www.w3.org/2000/svg" d="M50.004,91.033l-0.253-0.065c-0.482-0.127-11.929-3.229-21.259-14.696l-0.629-0.773l55.214-45.191v9.768  c0,41.83-32.492,50.807-32.82,50.893L50.004,91.033z M30.682,75.775c8.048,9.451,17.644,12.676,19.321,13.184  c2.976-0.914,31.074-10.58,31.074-48.884v-5.546L30.682,75.775z M26.451,73.6l-0.612-0.918c-1.408-2.112-2.669-4.38-3.748-6.739  l-0.32-0.701l57.46-47.021l0.621,0.436c1.848,1.297,2.854,2.202,2.896,2.24l0.329,0.298v6.062L26.451,73.6z M24.236,65.808  c0.798,1.674,1.692,3.295,2.666,4.838l54.175-44.337v-4.211c-0.339-0.284-0.934-0.764-1.759-1.364L24.236,65.808z M20.84,62.952  l-0.475-1.341c-0.898-2.538-1.629-5.229-2.172-8.001l-0.115-0.587l49.74-40.713l0.544,0.212c2.6,1.016,5.134,2.232,7.531,3.616  l1.253,0.724L20.84,62.952z M20.273,53.811c0.41,1.982,0.919,3.919,1.519,5.778l51.832-42.427c-1.758-0.951-3.583-1.809-5.447-2.561  L20.273,53.811z M17.624,50.34l-0.21-1.818c-0.331-2.857-0.491-5.621-0.491-8.447V21.192l0.331-0.298  C17.793,20.409,30.689,9,50.004,9c4.46,0,8.958,0.626,13.37,1.861l1.853,0.519L17.624,50.34z M18.923,22.1v17.975  c0,2.14,0.095,4.243,0.289,6.382l41.735-34.159C57.32,11.437,53.648,11,50.004,11C33.136,11,21.043,20.345,18.923,22.1z"/></g><g id="SvgjsG2311" featureKey="Fok8m0-0" transform="matrix(3.3512061601321825,0,0,3.3512061601321825,117.65415632709932,4.6702457063693785)" fill="#fff"><path d="M10.76 16.64 l0.82 0 c-0.46 1.76 -1.8 3.64 -4.84 3.64 c-3.58 0 -6.04 -2.72 -6.04 -6.56 c0 -3.68 2.44 -6.46 5.8 -6.46 c1.54 0 2 0.42 3.18 0.42 c0.22 0 0.38 0 0.76 -0.08 c0.18 1.14 0.46 2.24 0.98 3.44 l-1.18 0 c-0.82 -1.88 -2 -3.06 -3.98 -3.06 c-1.62 0 -3.06 1.44 -3.06 5.18 c0 3.64 1.46 6.32 3.86 6.32 c1.7 0 3.02 -0.84 3.7 -2.84 z M21.240000000000002 16.7 l0.74 0 c-0.4 1.16 -0.56 2.22 -0.62 3.28 c-3.12 -0.04 -5.88 -0.04 -8.88 0 l0 -0.66 c1.08 -0.1 1.42 -0.24 1.42 -0.74 l0 -9.64 c0 -0.5 -0.34 -0.64 -1.42 -0.72 l0 -0.64 l8.52 0 c0.26 0 0.3 0.06 0.34 0.36 l0.3 2.26 l-0.7 0 l-0.24 -0.42 c-0.56 -1.04 -1.06 -1.46 -2.12 -1.46 l-2.08 0 c-0.16 0 -0.24 0.08 -0.24 0.24 l0 4.72 l2.38 0 c1 0 1.22 -0.46 1.4 -1.28 l0.6 0 c-0.1 1.14 -0.1 2.18 0 3.3 l-0.6 0 c-0.18 -0.8 -0.4 -1.28 -1.4 -1.28 l-2.38 0 l0 4.98 c0 0.14 0.08 0.24 0.24 0.24 l1.7 0 c1.34 0 1.96 -0.3 2.4 -1.22 z M31.159999999999997 17 c1.04 1.5 2.14 2.46 3.04 2.52 l-0.42 0.64 c-1.56 0 -3.04 -0.48 -4.54 -2.5 l-1.94 -2.6 l-0.14 0.02 l-0.5 0.06 l0 3.5 c0 0.5 0.34 0.64 1.4 0.72 l0 0.64 c-1.72 -0.06 -3.46 -0.06 -5.18 0 l0 -0.64 c1.08 -0.08 1.42 -0.22 1.42 -0.72 l0 -9.44 c0 -0.54 -0.3 -0.9 -1.34 -0.98 l0 -0.64 c1.84 0.08 3.72 0 4.94 0 c4.18 0 5.3 1.6 5.3 3.48 c0 1.44 -1.02 2.8 -3.68 3.56 z M26.66 8.28 l0 6.14 l0.5 -0.06 c2.8 -0.42 3.72 -1.66 3.72 -3.38 c0 -1.5 -0.82 -2.7 -2.66 -2.7 l-1.56 0 z M43.839999999999996 7.42 l0.64 0 l-0.7 2.72 l-0.72 0 c0.16 -1.46 -0.06 -1.84 -0.84 -1.84 l-1.66 0 l0 10.32 c0 0.5 0.38 0.66 1.46 0.74 l0 0.64 c-1.74 -0.06 -3.54 -0.06 -5.28 0 l0 -0.64 c1.08 -0.08 1.46 -0.24 1.46 -0.74 l0 -10.32 l-1.54 0 c-0.78 0 -1 0.28 -1.76 1.84 l-0.7 0 l0.72 -2.72 l0.64 0 c0.56 0.14 0.9 0.16 1.9 0.16 l4.48 0 c1 0 1.34 -0.02 1.9 -0.16 z M54.480000000000004 17.84 c0.38 1.02 0.56 1.42 1.96 1.52 l0 0.64 c-1.8 -0.06 -3.66 -0.06 -5.46 0 l0 -0.64 c1.34 -0.1 1.5 -0.32 1.2 -1.12 l-0.9 -2.44 l-4.08 0 l-0.86 2.52 c-0.24 0.76 0.52 0.94 1.8 1.04 l0 0.64 c-1.46 -0.06 -3.18 -0.06 -4.64 0 l0 -0.64 c1.32 -0.1 1.82 -0.42 2.14 -1.34 l3.58 -10.54 l1.36 0 z M47.42 15.1 l3.6 0 l-1.88 -5.08 z M60.96 18.62 c0 0.5 0.38 0.66 1.44 0.74 l0 0.64 c-1.72 -0.06 -3.54 -0.06 -5.26 0 l0 -0.64 c1.08 -0.08 1.46 -0.24 1.46 -0.74 l0 -9.66 c0 -0.5 -0.38 -0.66 -1.46 -0.74 l0 -0.64 c1.72 0.06 3.54 0.06 5.26 0 l0 0.64 c-1.06 0.08 -1.44 0.24 -1.44 0.74 l0 9.66 z M72.58 17.58 c0.96 1.28 1.92 2 2.72 2.08 l-0.6 0.64 c-1.56 0 -2.9 -0.22 -4.08 -1.82 l-2.88 -3.86 l-0.62 0.7 l0 3.3 c0 0.5 0.38 0.66 1.44 0.74 l0 0.64 c-1.72 -0.06 -3.54 -0.06 -5.26 0 l0 -0.64 c1.08 -0.08 1.46 -0.24 1.46 -0.74 l0 -9.66 c0 -0.5 -0.38 -0.66 -1.46 -0.74 l0 -0.64 c1.72 0.06 3.54 0.06 5.26 0 l0 0.64 c-1.06 0.08 -1.44 0.24 -1.44 0.74 l0 5.2 l4.56 -5.16 c0.44 -0.48 -0.32 -0.72 -1.34 -0.78 l0 -0.64 c1.46 0.06 2.9 0.06 4.34 0 l0 0.64 c-1 0.06 -1.54 0.26 -1.96 0.74 l-3.56 4.06 z"/></g><g id="SvgjsG2312" featureKey="TflPBd-0" transform="matrix(0.8181121664786354,0,0,0.8181121664786354,119.72614729281845,79.41666861719807)" fill="#fff"><path d="M13.62 20.22 c-0.10666 0.05334 -0.21992 0.08 -0.33992 0.08 c-0.17334 0 -0.33668 -0.04666 -0.49002 -0.14 s-0.26334 -0.22668 -0.33 -0.40002 l-1.58 -3.72 l-7.26 0 l-1.58 3.72 c-0.09334 0.22666 -0.25334 0.38666 -0.48 0.48 s-0.45332 0.08668 -0.67998 -0.01998 c-0.22666 -0.09334 -0.38666 -0.25334 -0.48 -0.48 s-0.08668 -0.45332 0.01998 -0.67998 l1.8 -4.26 l4.22 -9.88 c0.06666 -0.17334 0.17332 -0.30668 0.31998 -0.40002 s0.31332 -0.14 0.49998 -0.14 c0.17334 0 0.33334 0.04666 0.48 0.14 s0.25332 0.22668 0.31998 0.40002 c1.0133 2.3734 2.02 4.73 3.02 7.07 s2.0066 4.6966 3.02 7.07 c0.09334 0.22666 0.09334 0.45332 0 0.67998 s-0.25334 0.38666 -0.48 0.48 z M7.26 7.539999999999999 l-2.88 6.72 l5.74 0 z M29.358 20.3 c-0.25334 0 -0.46668 -0.08666 -0.64002 -0.26 s-0.26 -0.38 -0.26 -0.62 l0 -14.02 c0 -0.24 0.08666 -0.44666 0.26 -0.62 s0.38668 -0.26 0.64002 -0.26 c0.24 0 0.44666 0.08666 0.62 0.26 s0.26 0.38 0.26 0.62 l0 14.02 c0 0.24 -0.08666 0.44666 -0.26 0.62 s-0.38 0.26 -0.62 0.26 z M77.134 20.22 c-0.10666 0.05334 -0.21992 0.08 -0.33992 0.08 c-0.17334 0 -0.33668 -0.04666 -0.49002 -0.14 s-0.26334 -0.22668 -0.33 -0.40002 l-1.58 -3.72 l-7.26 0 l-1.58 3.72 c-0.09334 0.22666 -0.25334 0.38666 -0.48 0.48 s-0.45332 0.08668 -0.67998 -0.01998 c-0.22666 -0.09334 -0.38666 -0.25334 -0.48 -0.48 s-0.08668 -0.45332 0.01998 -0.67998 l1.8 -4.26 l4.22 -9.88 c0.06666 -0.17334 0.17332 -0.30668 0.31998 -0.40002 s0.31332 -0.14 0.49998 -0.14 c0.17334 0 0.33334 0.04666 0.48 0.14 s0.25332 0.22668 0.31998 0.40002 c1.0133 2.3734 2.02 4.73 3.02 7.07 s2.0066 4.6966 3.02 7.07 c0.09334 0.22666 0.09334 0.45332 0 0.67998 s-0.25334 0.38666 -0.48 0.48 z M70.774 7.539999999999999 l-2.88 6.72 l5.74 0 z M98.05199999999999 20.3 c-0.84 0 -1.6266 -0.16004 -2.36 -0.48004 s-1.3767 -0.75334 -1.93 -1.3 s-0.99 -1.19 -1.31 -1.93 s-0.48 -1.53 -0.48 -2.37 l0 -8.82 c0 -0.24 0.08666 -0.44666 0.26 -0.62 s0.38668 -0.26 0.64002 -0.26 c0.24 0 0.44666 0.08666 0.62 0.26 s0.26 0.38 0.26 0.62 l0 8.82 c0 0.6 0.11334 1.16 0.34 1.68 s0.53332 0.97334 0.91998 1.36 s0.84332 0.69332 1.37 0.91998 s1.0833 0.34 1.67 0.34 c0.6 0 1.16 -0.11334 1.68 -0.34 s0.97666 -0.53332 1.37 -0.91998 s0.70334 -0.84332 0.93 -1.37 s0.34 -1.0833 0.34 -1.67 l0 -8.82 c0 -0.24 0.08666 -0.44666 0.26 -0.62 s0.38 -0.26 0.62 -0.26 c0.25334 0 0.46668 0.08666 0.64002 0.26 s0.26 0.38 0.26 0.62 l0 8.82 c0 0.84 -0.16 1.63 -0.48 2.37 s-0.75666 1.3833 -1.31 1.93 s-1.2 0.98 -1.94 1.3 s-1.53 0.48 -2.37 0.48 z M125.57 20.3 l-4.92 -0.000039062 c-0.16 0 -0.31334 -0.04666 -0.46 -0.14 s-0.25332 -0.21334 -0.31998 -0.36 c-0.12 -0.21334 -0.13334 -0.45334 -0.04 -0.72 l0 -13.68 c0 -0.24 0.08666 -0.44666 0.26 -0.62 s0.38668 -0.26 0.64002 -0.26 l4.82 0 c1.0533 0 2.0134 0.22666 2.88 0.68 s1.6067 1.0467 2.22 1.78 s1.0867 1.5667 1.42 2.5 s0.5 1.88 0.5 2.84 c0 1.1867 -0.20334 2.27 -0.61 3.25 s-0.94 1.82 -1.6 2.52 s-1.41 1.2433 -2.25 1.63 s-1.6867 0.58 -2.54 0.58 z M125.55 6.279999999999999 l-3.94 -0.000078126 l0 12.26 l3.96 0 c0.76 0 1.4567 -0.18334 2.09 -0.55 s1.1833 -0.84332 1.65 -1.43 s0.83 -1.2533 1.09 -2 s0.39 -1.4933 0.39 -2.24 c0 -0.76 -0.12666 -1.5033 -0.38 -2.23 s-0.61 -1.3733 -1.07 -1.94 s-1.0133 -1.02 -1.66 -1.36 s-1.3567 -0.51 -2.13 -0.51 z M148.648 20.3 c-0.25334 0 -0.46668 -0.08666 -0.64002 -0.26 s-0.26 -0.38 -0.26 -0.62 l0 -14.02 c0 -0.24 0.08666 -0.44666 0.26 -0.62 s0.38668 -0.26 0.64002 -0.26 c0.24 0 0.44666 0.08666 0.62 0.26 s0.26 0.38 0.26 0.62 l0 14.02 c0 0.24 -0.08666 0.44666 -0.26 0.62 s-0.38 0.26 -0.62 0.26 z M172.74599999999998 6.279999999999999 l-3.24 0 l0 13.14 c0 0.24 -0.08666 0.44666 -0.26 0.62 s-0.38 0.26 -0.62 0.26 c-0.25334 0 -0.46668 -0.08666 -0.64002 -0.26 s-0.26 -0.38 -0.26 -0.62 l0 -13.14 l-3.24 0 c-0.24 0 -0.44666 -0.08334 -0.62 -0.25 s-0.26 -0.37666 -0.26 -0.63 c0 -0.24 0.08666 -0.44666 0.26 -0.62 s0.38 -0.26 0.62 -0.26 l8.26 0 c0.24 0 0.44666 0.08666 0.62 0.26 s0.26 0.38 0.26 0.62 c0 0.25334 -0.08666 0.46334 -0.26 0.63 s-0.38 0.25 -0.62 0.25 z M188.60399999999998 20.3 c-0.25334 0 -0.46668 -0.08666 -0.64002 -0.26 s-0.26 -0.38 -0.26 -0.62 l0 -14.02 c0 -0.24 0.08666 -0.44666 0.26 -0.62 s0.38668 -0.26 0.64002 -0.26 c0.24 0 0.44666 0.08666 0.62 0.26 s0.26 0.38 0.26 0.62 l0 14.02 c0 0.24 -0.08666 0.44666 -0.26 0.62 s-0.38 0.26 -0.62 0.26 z M214.84199999999998 20.3 c-0.33334 0 -0.58668 -0.14 -0.76002 -0.42 l-7.22 -11.44 l0 10.98 c0 0.24 -0.08334 0.44666 -0.25 0.62 s-0.37666 0.26 -0.63 0.26 c-0.24 0 -0.44666 -0.08666 -0.62 -0.26 s-0.26 -0.38 -0.26 -0.62 l0 -14.02 c0 -0.24 0.08666 -0.44666 0.26 -0.62 s0.38 -0.26 0.62 -0.26 c0.33334 0 0.58668 0.13334 0.76002 0.4 l7.22 11.44 l0 -10.96 c0 -0.24 0.08334 -0.44666 0.25 -0.62 s0.37666 -0.26 0.63 -0.26 c0.24 0 0.44666 0.08666 0.62 0.26 s0.26 0.38 0.26 0.62 l0 14.02 c0 0.24 -0.08666 0.44666 -0.26 0.62 s-0.38 0.26 -0.62 0.26 z M244.53999999999996 17.96 c-0.76 0.76 -1.6234 1.3399 -2.59 1.7399 s-1.99 0.6 -3.07 0.6 c-1.1067 0 -2.1434 -0.21 -3.11 -0.63 s-1.81 -0.99 -2.53 -1.71 s-1.29 -1.5633 -1.71 -2.53 s-0.63 -2.0034 -0.63 -3.11 s0.21 -2.1334 0.63 -3.08 s0.99334 -1.77 1.72 -2.47 s1.5733 -1.25 2.54 -1.65 s1.9967 -0.6 3.09 -0.6 c1.08 0 2.1034 0.2 3.07 0.6 s1.83 0.98 2.59 1.74 c0.17334 0.17334 0.26 0.38 0.26 0.62 s-0.08666 0.44666 -0.26 0.62 c-0.18666 0.18666 -0.4 0.28 -0.64 0.28 s-0.44666 -0.09334 -0.62 -0.28 c-0.6 -0.58666 -1.2733 -1.0367 -2.02 -1.35 s-1.54 -0.47 -2.38 -0.47 c-0.85334 0 -1.6567 0.15334 -2.41 0.46 s-1.41 0.73 -1.97 1.27 s-1.0033 1.18 -1.33 1.92 s-0.49 1.5367 -0.49 2.39 s0.16334 1.6567 0.49 2.41 s0.77 1.41 1.33 1.97 s1.2167 1.0033 1.97 1.33 s1.5567 0.49 2.41 0.49 c0.77334 0 1.5133 -0.13334 2.22 -0.4 s1.3467 -0.65332 1.92 -1.16 l0 -3.76 l-4.04 0 c-0.25334 0 -0.46668 -0.08666 -0.64002 -0.26 s-0.26 -0.38 -0.26 -0.62 c0 -0.25334 0.08666 -0.46668 0.26 -0.64002 s0.38668 -0.26 0.64002 -0.26 l4.92 0 c0.25334 0 0.46668 0.08666 0.64002 0.26 s0.26 0.38668 0.26 0.64002 l0 5.02 c0 0.24 -0.08666 0.44666 -0.26 0.62 z"/></g>
			</g>
		</svg>
	